{"asset":{"version":"2.0","generator":"THREE.GLTFExporter"},"scenes":[{"name":"AuxScene","nodes":[0]}],"scene":0,"nodes":[{"mesh":0}],"bufferViews":[{"buffer":0,"byteOffset":0,"byteLength":1152,"target":34962,"byteStride":12},{"buffer":0,"byteOffset":1152,"byteLength":1152,"target":34962,"byteStride":12},{"buffer":0,"byteOffset":2304,"byteLength":1152,"target":34962,"byteStride":12},{"buffer":0,"byteOffset":3456,"byteLength":768,"target":34962,"byteStride":8},{"buffer":0,"byteOffset":4224,"byteLength":192,"target":34963}],"buffers":[{"byteLength":4416,"uri":"data:application/octet-stream;base64,"}],"accessors":[{"bufferView":0,"componentType":5126,"count":96,"max":[4,4,0.375],"min":[0,0,-0.25],"type":"VEC3"},{"bufferView":1,"componentType":5126,"count":96,"max":[0.24253562092781067,0.34874290227890015,1],"min":[-0.3511234521865845,-0.3511234521865845,0.8834522366523743],"type":"VEC3"},{"bufferView":2,"componentType":5126,"count":96,"max":[1,1,1],"min":[1,1,1],"type":"VEC3"},{"bufferView":3,"componentType":5126,"count":96,"max":[0.5,0.25],"min":[0.25,0],"type":"VEC2"},{"bufferView":4,"componentType":5123,"count":96,"max":[95],"min":[0],"type":"SCALAR"}],"materials":[{"pbrMetallicRoughness":{"metallicFactor":0,"roughnessFactor":0.9,"baseColorTexture":{"index":0}},"extensions":{"KHR_materials_unlit":{}},"alphaMode":"MASK","alphaCutoff":0.01}],"textures":[{"sampler":0,"source":0}],"samplers":[{"magFilter":9728,"minFilter":9728,"wrapS":33071,"wrapT":33071}],"images":[{"mimeType":"image/png","uri":"data:image/png;base64,"}],"meshes":[{"primitives":[{"mode":4,"attributes":{"POSITION":0,"NORMAL":1,"COLOR_0":2,"TEXCOORD_0":3},"indices":4,"material":0}]}],"extensionsUsed":["KHR_materials_unlit"]}