{"asset":{"version":"2.0","generator":"THREE.GLTFExporter"},"scenes":[{"name":"AuxScene","nodes":[0]}],"scene":0,"nodes":[{"mesh":0}],"bufferViews":[{"buffer":0,"byteOffset":0,"byteLength":40320,"target":34962,"byteStride":12},{"buffer":0,"byteOffset":40320,"byteLength":40320,"target":34962,"byteStride":12},{"buffer":0,"byteOffset":80640,"byteLength":40320,"target":34962,"byteStride":12},{"buffer":0,"byteOffset":120960,"byteLength":26880,"target":34962,"byteStride":8},{"buffer":0,"byteOffset":147840,"byteLength":1680,"target":34963},{"buffer":0,"byteOffset":149520,"byteLength":5040,"target":34963}],"buffers":[{"byteLength":154560,"uri":"data:application/octet-stream;base64,"}],"accessors":[{"bufferView":0,"componentType":5126,"count":3360,"max":[11,5.001542091369629,16.00149917602539],"min":[-4,-0.0008651735843159258,-1.7763568394002505e-15],"type":"VEC3"},{"bufferView":1,"componentType":5126,"count":3360,"max":[1,1,1],"min":[-1,-1,-1],"type":"VEC3"},{"bufferView":2,"componentType":5126,"count":3360,"max":[1,1,1],"min":[1,1,1],"type":"VEC3"},{"bufferView":3,"componentType":5126,"count":3360,"max":[0.25,0.5],"min":[-0.0625,0],"type":"VEC2"},{"bufferView":4,"componentType":5123,"count":840,"max":[839],"min":[0],"type":"SCALAR"},{"bufferView":5,"componentType":5123,"count":2520,"max":[3359],"min":[840],"type":"SCALAR"}],"materials":[{"pbrMetallicRoughness":{"metallicFactor":0,"roughnessFactor":0.9,"baseColorTexture":{"index":0}},"extensions":{"KHR_materials_unlit":{}},"alphaMode":"MASK","alphaCutoff":0.01},{"pbrMetallicRoughness":{"metallicFactor":0,"roughnessFactor":0.9,"baseColorTexture":{"index":1}},"extensions":{"KHR_materials_unlit":{}},"alphaMode":"MASK","alphaCutoff":0.01}],"textures":[{"sampler":0,"source":0},{"sampler":1,"source":1}],"samplers":[{"magFilter":9728,"minFilter":9728,"wrapS":33071,"wrapT":33071},{"magFilter":9728,"minFilter":9728,"wrapS":33071,"wrapT":33071}],"images":[{"mimeType":"image/png","uri":"data:image/png;base64,"},{"mimeType":"image/png","uri":"data:image/png;base64,"}],"meshes":[{"primitives":[{"mode":4,"attributes":{"POSITION":0,"NORMAL":1,"COLOR_0":2,"TEXCOORD_0":3},"indices":4,"material":0},{"mode":4,"attributes":{"POSITION":0,"NORMAL":1,"COLOR_0":2,"TEXCOORD_0":3},"indices":5,"material":1}]}],"extensionsUsed":["KHR_materials_unlit"]}