{"asset":{"version":"2.0","generator":"THREE.GLTFExporter"},"scenes":[{"name":"AuxScene","nodes":[0]}],"scene":0,"nodes":[{"mesh":0}],"bufferViews":[{"buffer":0,"byteOffset":0,"byteLength":504,"target":34962,"byteStride":12},{"buffer":0,"byteOffset":504,"byteLength":504,"target":34962,"byteStride":12},{"buffer":0,"byteOffset":1008,"byteLength":504,"target":34962,"byteStride":12},{"buffer":0,"byteOffset":1512,"byteLength":336,"target":34962,"byteStride":8},{"buffer":0,"byteOffset":1848,"byteLength":72,"target":34963},{"buffer":0,"byteOffset":1920,"byteLength":12,"target":34963}],"buffers":[{"byteLength":1932,"uri":"data:application/octet-stream;base64,"}],"accessors":[{"bufferView":0,"componentType":5126,"count":42,"max":[2,2,1],"min":[0,-1,0],"type":"VEC3"},{"bufferView":1,"componentType":5126,"count":42,"max":[0,0.7071067690849304,1],"min":[0,0,0.7071067690849304],"type":"VEC3"},{"bufferView":2,"componentType":5126,"count":42,"max":[1,1,1],"min":[1,1,1],"type":"VEC3"},{"bufferView":3,"componentType":5126,"count":42,"max":[0.5,0.5],"min":[0,0],"type":"VEC2"},{"bufferView":4,"componentType":5123,"count":36,"max":[35],"min":[0],"type":"SCALAR"},{"bufferView":5,"componentType":5123,"count":6,"max":[41],"min":[36],"type":"SCALAR"}],"materials":[{"pbrMetallicRoughness":{"metallicFactor":0,"roughnessFactor":0.9,"baseColorTexture":{"index":0}},"extensions":{"KHR_materials_unlit":{}},"alphaMode":"MASK","alphaCutoff":0.01},{"pbrMetallicRoughness":{"metallicFactor":0,"roughnessFactor":0.9,"baseColorTexture":{"index":1}},"extensions":{"KHR_materials_unlit":{}},"alphaMode":"MASK","alphaCutoff":0.01}],"textures":[{"sampler":0,"source":0},{"sampler":1,"source":1}],"samplers":[{"magFilter":9728,"minFilter":9728,"wrapS":33071,"wrapT":33071},{"magFilter":9728,"minFilter":9728,"wrapS":33071,"wrapT":33071}],"images":[{"mimeType":"image/png","uri":"data:image/png;base64,"},{"mimeType":"image/png","uri":"data:image/png;base64,"}],"meshes":[{"primitives":[{"mode":4,"attributes":{"POSITION":0,"NORMAL":1,"COLOR_0":2,"TEXCOORD_0":3},"indices":4,"material":0},{"mode":4,"attributes":{"POSITION":0,"NORMAL":1,"COLOR_0":2,"TEXCOORD_0":3},"indices":5,"material":1}]}],"extensionsUsed":["KHR_materials_unlit"]}