{"asset":{"version":"2.0","generator":"THREE.GLTFExporter"},"scenes":[{"name":"AuxScene","nodes":[0]}],"scene":0,"nodes":[{"mesh":0}],"bufferViews":[{"buffer":0,"byteOffset":0,"byteLength":445536,"target":34962,"byteStride":12},{"buffer":0,"byteOffset":445536,"byteLength":445536,"target":34962,"byteStride":12},{"buffer":0,"byteOffset":891072,"byteLength":445536,"target":34962,"byteStride":12},{"buffer":0,"byteOffset":1336608,"byteLength":297024,"target":34962,"byteStride":8},{"buffer":0,"byteOffset":1633632,"byteLength":74256,"target":34963}],"buffers":[{"byteLength":1707888,"uri":"data:application/octet-stream;base64,"}],"accessors":[{"bufferView":0,"componentType":5126,"count":37128,"max":[28.996797561645508,9.003726959228516,0.001691920217126608],"min":[-22.00166893005371,-1.9991596937179565,-46.0052604675293],"type":"VEC3"},{"bufferView":1,"componentType":5126,"count":37128,"max":[1,1,1],"min":[-1,-1,-1],"type":"VEC3"},{"bufferView":2,"componentType":5126,"count":37128,"max":[1,1,1],"min":[1,1,1],"type":"VEC3"},{"bufferView":3,"componentType":5126,"count":37128,"max":[1,1],"min":[0,0],"type":"VEC2"},{"bufferView":4,"componentType":5123,"count":37128,"max":[37127],"min":[0],"type":"SCALAR"}],"materials":[{"pbrMetallicRoughness":{"metallicFactor":0,"roughnessFactor":0.9,"baseColorTexture":{"index":0}},"extensions":{"KHR_materials_unlit":{}},"alphaMode":"MASK","alphaCutoff":0.01}],"textures":[{"sampler":0,"source":0}],"samplers":[{"magFilter":9728,"minFilter":9728,"wrapS":33071,"wrapT":33071}],"images":[{"mimeType":"image/png","uri":"data:image/png;base64,"}],"meshes":[{"primitives":[{"mode":4,"attributes":{"POSITION":0,"NORMAL":1,"COLOR_0":2,"TEXCOORD_0":3},"indices":4,"material":0}]}],"extensionsUsed":["KHR_materials_unlit"]}